<?xml version="1.0" encoding="UTF-8" standalone="no"?>
<svg
   viewBox="0 0 1073.3333 1033.3333"
   width="322"
   height="310"
   xml:space="preserve"
   version="1.1"
   id="svg272"
   sodipodi:docname="111.svg"
   inkscape:version="1.2.2 (732a01da63, 2022-12-09)"
   xmlns:inkscape="http://www.inkscape.org/namespaces/inkscape"
   xmlns:sodipodi="http://sodipodi.sourceforge.net/DTD/sodipodi-0.dtd"
   xmlns="http://www.w3.org/2000/svg"
   xmlns:svg="http://www.w3.org/2000/svg"><defs
   id="defs276" /><sodipodi:namedview
   id="namedview274"
   pagecolor="#ffffff"
   bordercolor="#000000"
   borderopacity="0.25"
   inkscape:showpageshadow="false"
   inkscape:pageopacity="0.0"
   inkscape:pagecheckerboard="0"
   inkscape:deskcolor="#d1d1d1"
   showgrid="false"
   showborder="false"
   borderlayer="false"
   inkscape:zoom="1.6733333"
   inkscape:cx="135.65737"
   inkscape:cy="125.49801"
   inkscape:window-width="1366"
   inkscape:window-height="705"
   inkscape:window-x="-8"
   inkscape:window-y="-8"
   inkscape:window-maximized="1"
   inkscape:current-layer="svg272" />
<style
   type="text/css"
   id="style9">
	.st0{fill:#FCC679;}
	.st1{fill:#010202;}
	.st2{fill:#B65639;}
	.st3{fill:#B3A68D;}
	.st4{fill:#E94B32;}
	.st5{opacity:0.99;}
	.st6{fill:#FFFFFF;}
	.st7{fill:#FBEAD4;}
	.st8{fill:#A01C16;}
	.st9{fill:#663D0E;}
</style>
<switch
   id="switch270"
   transform="matrix(1.1794483,0,0,1.1770345,-56.977633,-96.61982)"
   style="stroke-width:0.848723">
	<g
   id="g268"
   style="stroke-width:0.848723">
		<g
   id="g111"
   style="stroke-width:0.848723">
			<g
   id="XMLID_44_"
   style="stroke-width:0.848723">
				<rect
   x="182.3"
   y="882.5"
   class="st0"
   width="637.59998"
   height="75.5"
   id="rect11"
   style="stroke-width:0.848723" />
				<path
   class="st1"
   d="m 821.7,960 h -1.8 l -639.4,-0.6 0.1,-79 h 1.8 l 639.4,0.6 z m -637.6,-4 634.1,0.6 0.1,-72 -634.2,-0.6 z"
   id="path13"
   style="stroke-width:0.848723" />
			</g>
			<g
   id="Ribbon"
   style="stroke-width:0.848723">
				<g
   id="XMLID_20_"
   style="stroke-width:0.848723">
					<path
   class="st0"
   d="m 747.4,703.7 c -1.4,16.7 6,31 16.5,31.8 10.5,0.9 20.1,-12 21.5,-28.7 1.4,-16.7 -2.5,-35.2 -13.6,-34.2 -12.4,1.2 -23,14.4 -24.4,31.1 z"
   id="path16"
   style="stroke-width:0.848723" />
					<path
   class="st1"
   d="m 765,737.4 c -0.4,0 -0.8,0 -1.2,0 -11.5,-0.9 -19.6,-16.1 -18.1,-33.7 v 0 c 1.4,-17.4 12.6,-31.5 26,-32.7 3.2,-0.3 6.1,0.8 8.5,3.1 6.7,6.6 8,21.9 7.1,33 -0.7,8.4 -3.4,16.2 -7.7,21.8 -4.2,5.5 -9.3,8.5 -14.6,8.5 z m -15.9,-33.5 c -1.3,15.7 5.4,29.1 14.9,29.9 4.4,0.4 9,-2.1 12.6,-7.1 3.9,-5.2 6.4,-12.3 7,-20 1.1,-13.4 -1.3,-25.5 -6,-30.2 -1.7,-1.6 -3.5,-2.3 -5.7,-2.1 -11.6,1.1 -21.5,13.8 -22.8,29.5 z"
   id="path18"
   style="stroke-width:0.848723" />
				</g>
				<g
   id="XMLID_19_"
   style="stroke-width:0.848723">
					<path
   class="st0"
   d="m 258,700.7 c 4.2,13.1 -2.8,32.1 -8.7,34 -5.9,1.9 -22.3,-10.9 -26.5,-24 -4.2,-13.1 6,-32 11.8,-33.8 5.9,-1.9 19.2,10.6 23.4,23.8 z"
   id="path21"
   style="stroke-width:0.848723" />
					<path
   class="st1"
   d="m 248.1,736.6 c -7.9,0 -22.9,-12.7 -27,-25.4 -4.5,-14.1 6.2,-33.9 13,-36 7.2,-2.3 21.3,11.5 25.5,25 4.2,13.3 -2.5,33.9 -9.8,36.2 -0.5,0.1 -1.1,0.2 -1.7,0.2 z M 236,678.4 c -0.3,0 -0.6,0 -0.8,0.1 -4.7,1.5 -14.6,19.3 -10.7,31.6 4,12.6 19.9,24.2 24.3,22.9 4.6,-1.5 11.5,-19.3 7.5,-31.8 v 0 C 252.5,689 241.1,678.4 236,678.4 Z"
   id="path23"
   style="stroke-width:0.848723" />
				</g>
				<g
   id="XMLID_2_"
   style="stroke-width:0.848723">
					<g
   id="Center_Ribbon"
   style="stroke-width:0.848723">
						<path
   class="st0"
   d="m 802.5,770.4 c -7,8 -2.3,2.8 -11,11.7 -70.1,70.9 -170.8,95.9 -283.8,97.4 -108.9,1.4 -215.5,-22 -290.1,-98.2 l -11.9,-13.9 c -12.4,-18.6 -11,-26.6 -1.4,-39.3 0.1,-0.1 0.1,-0.1 0.2,-0.2 l 20.2,-29.3 c 61.7,67 162.7,111.1 274.2,112.1 121.8,1.1 228.9,-45.7 281.3,-115.4 l 22.7,32.5 c 10.8,15.4 8.2,32.8 -0.4,42.6 z"
   id="path26"
   style="stroke-width:0.848723" />
						<path
   class="st1"
   d="m 498.6,881.3 c -55.5,0 -105.7,-6.8 -149.3,-20.1 -53,-16.3 -97.8,-42.7 -133,-78.6 l -0.1,-0.1 -12.1,-14 C 191,748.8 192.9,740.2 202.8,727.1 l 0.2,-0.2 21.4,-31 1.5,1.6 c 63.4,68.9 165.4,110.6 272.9,111.5 118.7,1 225.9,-42.9 279.8,-114.7 l 1.5,-1.9 24.1,34.5 c 11.9,16.7 8.1,34.9 -0.5,44.7 v 0 c -1.2,1.4 -2.1,2.4 -2.7,3.1 -1.9,2.1 -1.9,2.2 -3.3,3.5 -0.9,0.8 -2.3,2.2 -5.1,5.1 -63.5,64.2 -156.7,96.2 -284.9,97.9 -3,0.1 -6,0.1 -9.1,0.1 z M 218.9,780.1 c 63.6,64.8 157.6,97.7 279.7,97.7 3,0 6,0 9.1,-0.1 127.3,-1.7 219.7,-33.4 282.5,-96.9 2.9,-2.9 4.3,-4.3 5.2,-5.2 1.3,-1.2 1.3,-1.2 3.1,-3.3 0.6,-0.7 1.5,-1.7 2.7,-3.1 v 0 c 7.7,-8.8 11.1,-25.2 0.2,-40.4 L 780,698.3 c -26.3,34.1 -65.6,62.7 -113.9,82.9 -50.3,21 -108.1,31.8 -167.4,31.3 -107.6,-0.9 -209.8,-42.4 -274,-111 l -19.2,27.8 c -9.3,12.3 -10.4,19.4 1.4,37.2 z"
   id="path28"
   style="stroke-width:0.848723" />
					</g>
					<g
   id="Left_Ribbon"
   style="stroke-width:0.848723">
						<path
   class="st0"
   d="m 245,681.3 -44.2,51.9 C 176.6,710 146.2,676.9 124.9,646.1 91.3,597.6 64.8,541 56,480.9 44.2,399.9 50.9,322 66.9,259.8 l 31.9,33.4 43.8,-20.1 c -14.4,40.6 -22.3,77 -22.3,122.8 0,14.8 0.8,29.4 2.4,43.7 6,54.2 23.1,104.8 48.7,149.4 19,33 46.2,66.9 73.6,92.3 z"
   id="path31"
   style="stroke-width:0.848723" />
						<path
   class="st1"
   d="m 201,735.8 -1.3,-1.3 C 170.6,706.6 142.1,674 123.5,647.2 86.2,593.4 62.3,536 54.3,481.2 43.5,407.5 47.4,328.7 65.2,259.4 l 0.8,-3.1 33.2,34.8 46.4,-21.3 -1.4,3.9 C 128.4,318 122,353.4 122,395.9 c 0,14.4 0.8,29.1 2.4,43.5 5.9,53.1 22.2,103.1 48.5,148.7 18.8,32.7 45.6,66.2 73.3,91.9 l 1.2,1.1 z M 67.8,263.3 c -17,68.1 -20.6,145.2 -10.1,217.4 7.9,54.2 31.7,111.1 68.6,164.5 18.1,26.2 45.8,58.1 74.4,85.5 l 41.9,-49.2 c -27.6,-25.8 -54,-59.1 -72.8,-91.6 -26.5,-46 -43,-96.5 -49,-150.1 -1.6,-14.6 -2.4,-29.3 -2.4,-43.9 0,-41.6 6.1,-76.5 21,-119.5 l -41.2,18.9 z"
   id="path33"
   style="stroke-width:0.848723" />
					</g>
					<g
   id="Right_Ribbon"
   style="stroke-width:0.848723">
						<path
   class="st0"
   d="m 950.3,472 c -7.1,50.2 -24.7,97.8 -48.1,140.7 0,0 0,0.1 -0.1,0.1 -23.4,42.8 -64.8,88.7 -95.5,119.8 l -29,-33 -19.2,-20.3 c 22.5,-20.3 43.1,-43.8 60.8,-69.9 42.7,-62.8 68.7,-140.4 64.8,-222.9 -0.4,-8.9 -1,-17.7 -1.9,-26.3 -3.5,-36.5 -10.8,-63.7 -23.3,-97 l 49.3,28.8 28.6,-32.2 C 957.5,324.9 962,390 950.3,472 Z"
   id="path36"
   style="stroke-width:0.848723" />
						<path
   class="st1"
   d="m 806.6,735.2 -30.2,-34.4 -20.4,-21.5 1.3,-1.2 c 22.7,-20.5 43.1,-43.9 60.5,-69.6 45.9,-67.5 68.2,-144.2 64.5,-221.9 -0.4,-8.8 -1,-17.6 -1.9,-26.2 -3.7,-38.5 -11.9,-66.4 -23.2,-96.6 l -1.7,-4.6 52.3,30.5 29.7,-33.5 0.9,2.9 c 21,66.2 25.2,131.9 13.6,213 v 0 c -6.7,47.4 -23,94.9 -48.3,141.3 l -0.1,0.2 c -23.2,42.5 -64.9,88.8 -95.7,120.1 z m -45.6,-55.8 18,19 27.8,31.6 c 43.4,-44.2 75.8,-85 93.8,-118 l 0.1,-0.2 c 25.1,-46 41.2,-93.1 47.8,-140 v 0 C 959.9,392.4 956,328 936,263.3 l -27.5,31 -46.4,-27 c 10.5,28.7 18.2,56 21.7,92.9 0.8,8.6 1.5,17.5 1.9,26.4 1.9,40.1 -3.1,80.2 -15,119.4 -11.1,36.8 -28,72 -50.1,104.6 -17.2,25.3 -37.2,48.5 -59.6,68.8 z"
   id="path38"
   style="stroke-width:0.848723" />
					</g>
				</g>
			</g>
			<g
   id="g47"
   style="stroke-width:0.848723">
				<path
   class="st2"
   d="m 842.5,392.5 c -0.5,-4.8 -1.7,-14.3 -4.3,-26 -1.9,-8.6 -4,-16.1 -6,-22.3 -21.5,3.2 -43,6.4 -64.5,9.6 -8.3,-32.2 -22.1,-62.1 -40.3,-88.6 17.2,-12.3 34.4,-24.7 51.6,-37 -9.7,-13.5 -21.8,-28.4 -36.6,-43.2 -8.6,-8.6 -18.3,-17.4 -29.3,-26.1 -4.1,-3.2 -8.1,-6.3 -12,-9.1 -13,16 -26.1,32 -39.1,48 -29.8,-21.8 -64,-37.6 -101.1,-46 6.1,-19.2 12.2,-38.3 18.4,-57.5 -15.8,-4.3 -35.6,-8.3 -58.7,-9.8 -25.6,-1.6 -47.8,0.3 -65.2,3 3.4,19.9 6.7,39.8 10.1,59.7 -37.7,4.8 -72.9,17.1 -104.3,35.5 -9.7,-18.1 -19.4,-36.2 -29.2,-54.3 -12.9,6.7 -28.1,15.9 -43.9,28.5 -15.8,12.5 -28.2,25.1 -37.6,36 15.4,14 30.7,27.9 46.1,41.9 -24.8,26.9 -44.4,58.7 -57.3,93.8 -19.1,-8.2 -38.3,-16.3 -57.4,-24.5 -6,16.1 -12,35.9 -16,58.8 -4.4,24.7 -5.5,46.7 -5.3,64.7 20.5,-1.3 40.9,-2.6 61.4,-3.9 -0.1,12.9 0.6,28 3,44.6 3,20.2 7.8,37.6 12.7,51.7 -18.5,9.2 -37.1,18.4 -55.6,27.5 4.4,13.2 11.1,29.4 21.5,46.8 9.7,16.2 20,29.2 29,39 15.4,-12.3 30.8,-24.5 46.2,-36.7 20.6,27.2 46.1,50.4 75,68.4 -12.8,15.7 -25.7,31.4 -38.5,47 13.4,9.5 31.2,20.5 53.5,29.9 22.3,9.4 42.5,14.5 58.7,17.4 4.2,-19.8 8.3,-39.6 12.5,-59.4 14,3 31.3,5.6 51.1,6.1 20.3,0.5 38.1,-1.2 52.4,-3.6 1.3,20.4 2.6,40.8 4,61.2 16.1,-1.3 37.4,-4.7 61.1,-13.3 19.3,-6.9 35,-15.4 47,-23 -11.2,-16.8 -22.4,-33.7 -33.7,-50.5 29.5,-14.9 56.1,-34.8 78.5,-58.8 15.7,14.5 31.4,28.9 47.1,43.4 11.7,-12.1 24.6,-27.4 37.1,-46.1 10.3,-15.5 18.4,-30.2 24.6,-43.4 -19.2,-10.2 -38.4,-20.4 -57.6,-30.5 13.3,-29.4 21.8,-61.5 24.3,-95.2 22.2,0 44.5,-0.1 66.7,-0.1 0.7,-6.5 1.4,-14.6 1.5,-23.8 0,-11.7 -0.7,-21.9 -1.6,-29.8 z M 502.3,655.3 c -125.4,2.2 -228.4,-98.9 -230.1,-225.8 -1.7,-126.8 98.6,-231.4 224,-233.6 125.4,-2.2 228.4,98.9 230.1,225.8 1.6,126.9 -98.6,231.5 -224,233.6 z"
   id="path43"
   style="stroke-width:0.848723" />
				<path
   class="st1"
   d="m 545.8,765.6 -0.1,-1.8 c -1.2,-18.5 -2.4,-37 -3.6,-55.5 l -0.2,-3.8 c -16.8,2.7 -33.9,3.8 -50.9,3.3 -16.7,-0.4 -33.4,-2.4 -49.7,-5.8 -4,19.2 -8.1,38.5 -12.1,57.7 l -0.3,1.7 -1.7,-0.3 c -20.2,-3.6 -40.1,-9.5 -59,-17.5 -19,-8 -37.1,-18.1 -53.9,-30.1 l -1.5,-1.1 1.2,-1.4 c 12.4,-15.2 24.8,-30.3 37.3,-45.5 -28,-17.7 -52.5,-40 -72.7,-66.4 l -46.1,36.6 -1.1,-1.2 c -11,-12.1 -20.9,-25.3 -29.2,-39.3 -8.9,-14.9 -16.1,-30.7 -21.6,-47.1 l -0.5,-1.4 55.6,-27.5 c -5.6,-16.4 -9.8,-33.4 -12.3,-50.6 -2.1,-14.2 -3.1,-28.6 -3.1,-43 l -61.3,3.9 v -1.8 c -0.3,-21.7 1.5,-43.6 5.3,-65 3.6,-20.1 9,-40 16.1,-59.1 l 0.6,-1.7 57.4,24.5 c 12.7,-33.8 31.4,-64.6 55.8,-91.3 l -46,-41.9 1.1,-1.3 c 11.4,-13.2 24.2,-25.4 37.8,-36.3 13.8,-10.9 28.6,-20.5 44.2,-28.7 l 1.5,-0.8 29.1,54.2 c 31.5,-18.2 65.7,-29.8 101.6,-34.6 L 453.4,86 l 1.7,-0.3 c 21.7,-3.4 43.7,-4.4 65.6,-3 19.9,1.3 39.7,4.6 59,9.8 l 1.8,0.5 -0.6,1.7 c -5.9,18.6 -11.8,37.1 -17.8,55.7 35.6,8.3 68.7,23.4 98.5,44.9 12.2,-15 24.4,-29.9 36.5,-44.9 l 2.6,-3.2 1.3,1 c 4.1,3 8.1,6 12.1,9.2 10.3,8.1 20.2,17 29.5,26.3 13.2,13.2 25.6,27.8 36.8,43.5 l 1,1.4 -1.4,1 c -12.3,8.8 -24.5,17.6 -36.8,26.4 l -13.4,9.6 c 17.9,26.4 31,55.3 39.2,86.2 21,-3.1 41.9,-6.3 62.9,-9.4 l 1.5,-0.2 0.5,1.4 c 2.4,7.4 4.4,14.9 6.1,22.5 1.9,8.8 3.4,17.6 4.4,26.2 1.1,10 1.6,20.1 1.5,30.2 -0.1,8 -0.6,16.1 -1.5,24 l -0.2,1.6 -66.7,0.1 c -2.6,32.2 -10.6,63.3 -23.6,92.7 18.7,9.9 37.5,19.8 56.2,29.8 l 1.5,0.8 -0.7,1.5 c -7.1,15.1 -15.5,29.8 -24.7,43.6 -11,16.4 -23.5,32 -37.3,46.3 l -1.2,1.2 -47.1,-43.4 c -22.1,23.3 -47.6,42.5 -76,57 l 33.6,50.3 -1.5,1 c -14.9,9.4 -30.8,17.2 -47.3,23.2 -19.8,7.1 -40.5,11.6 -61.6,13.3 z m -0.7,-65.1 0.5,7.6 c 1.2,17.9 2.3,35.8 3.5,53.7 20.1,-1.8 39.9,-6.2 58.9,-13 15.8,-5.7 30.9,-13 45.1,-21.9 l -33.8,-50.6 1.8,-0.9 c 29.2,-14.7 55.5,-34.4 78,-58.4 l 1.2,-1.3 47.1,43.4 c 13.1,-13.8 25.1,-28.8 35.7,-44.6 8.9,-13.2 16.8,-27.2 23.8,-41.6 -18.7,-9.9 -37.4,-19.8 -56.1,-29.7 l -1.5,-0.8 0.7,-1.5 c 13.5,-29.9 21.7,-61.7 24.1,-94.6 l 0.1,-1.6 66.8,-0.1 c 0.8,-7.3 1.2,-14.7 1.3,-22.1 0.1,-9.9 -0.4,-19.9 -1.5,-29.8 v 0 c -0.9,-8.5 -2.4,-17.2 -4.3,-25.8 -1.5,-7 -3.4,-13.9 -5.5,-20.7 -21,3.1 -42,6.3 -63,9.4 l -1.6,0.2 -0.4,-1.5 c -8.1,-31.6 -21.6,-61.2 -40,-88 l -1,-1.4 16.2,-11.6 c 11.8,-8.5 23.6,-16.9 35.4,-25.4 -10.9,-15 -22.8,-29 -35.4,-41.6 -9.2,-9.2 -19,-17.9 -29.2,-26 -3.5,-2.8 -7,-5.5 -10.6,-8.1 l -0.5,0.6 c -12.5,15.4 -25.1,30.8 -37.6,46.1 l -1,1.3 -1.3,-1 C 630.7,177.1 596.9,161.7 560.6,153.5 l -1.9,-0.4 0.6,-1.8 c 5.9,-18.6 11.9,-37.2 17.8,-55.8 -18.5,-4.9 -37.5,-8 -56.5,-9.2 -21,-1.4 -42.2,-0.4 -63.1,2.7 l 10.1,59.8 -1.8,0.2 c -36.7,4.6 -71.6,16.5 -103.7,35.3 l -1.6,0.9 -29.2,-54.4 c -14.8,7.8 -29,17.1 -42.1,27.5 -13.1,10.4 -25.3,22 -36.3,34.5 l 46.1,41.9 -1.2,1.3 c -25,27.2 -44.2,58.6 -56.9,93.2 l -0.6,1.7 -57.4,-24.5 c -6.7,18.4 -11.9,37.5 -15.3,56.8 -3.7,20.6 -5.5,41.6 -5.3,62.5 l 61.4,-3.9 v 1.9 c -0.2,14.8 0.9,29.7 3,44.3 2.6,17.4 6.8,34.7 12.6,51.4 l 0.5,1.5 -55.6,27.6 c 5.3,15.7 12.4,30.8 20.8,45 7.9,13.3 17.3,25.9 27.7,37.5 l 46.3,-36.8 1.1,1.4 c 20.6,27.2 45.7,50.1 74.5,68 l 1.7,1.1 -1.3,1.5 c -12.4,15.2 -24.9,30.4 -37.3,45.6 16.1,11.3 33.5,21 51.7,28.6 18.2,7.7 37.2,13.4 56.6,17 4,-19.2 8.1,-38.5 12.1,-57.7 l 0.4,-1.7 1.7,0.4 c 16.7,3.6 33.7,5.6 50.8,6.1 17.4,0.5 34.9,-0.8 52.1,-3.6 z m -46.8,-43.4 c -59.1,0 -115,-22.7 -157.7,-64.1 -44.4,-43.1 -69.3,-101.1 -70.1,-163.4 -0.8,-61.8 22.2,-120.3 64.8,-164.8 42.6,-44.5 99.8,-69.5 160.9,-70.6 60.6,-1.1 118,21.7 161.7,64.1 44.4,43.1 69.3,101.1 70.1,163.4 0.8,61.8 -22.2,120.3 -64.8,164.8 -42.6,44.5 -99.8,69.5 -160.9,70.6 v -1.8 1.8 c -1.3,0 -2.7,0 -4,0 z m 1.8,-459.4 c -1.3,0 -2.6,0 -3.9,0 C 372,199.9 272.3,303.9 274,429.6 c 0.8,61.4 25.3,118.5 69.1,161 43,41.7 99.6,64.1 159.2,63.1 124.2,-2.1 223.9,-106.1 222.2,-231.8 -0.8,-61.4 -25.3,-118.5 -69.1,-161 -42,-40.9 -97,-63.2 -155.3,-63.2 z"
   id="path45"
   style="stroke-width:0.848723" />
			</g>
			<g
   id="Mast"
   style="stroke-width:0.848723">
				<g
   id="XMLID_65_"
   style="stroke-width:0.848723">
					<polygon
   class="st3"
   points="540,261.7 547,361.5 505.7,329.9 501.5,265 "
   id="polygon49"
   style="stroke-width:0.848723" />
					<path
   class="st1"
   d="m 548.7,364.7 -44.4,-34.1 -4.4,-67 41.5,-3.6 z m -41.5,-35.6 38.1,29.2 -6.7,-95 -35.5,3.1 z"
   id="path51"
   style="stroke-width:0.848723" />
				</g>
				<g
   id="XMLID_67_"
   style="stroke-width:0.848723">
					<g
   id="g56"
   style="stroke-width:0.848723">
						<path
   class="st4"
   d="m 490.6,245.7 c -2.4,0 -3.6,-0.3 -4.7,-1.2 -4.4,-3.4 -3.4,-11.3 -3.3,-12.2 1.1,-7.3 7,-13.4 9.5,-13.4 0.2,0 0.4,0 0.6,0.1 0.8,0.4 0.7,1.3 0.5,2.9 -0.2,1.6 -0.5,4 -0.2,7.5 0,0.1 0.4,6.3 3.4,9.5 0.2,-0.6 0.4,-1.7 0.6,-2.8 0.5,-3 1.3,-7.5 3,-11.8 2.3,-5.7 6.4,-11.4 8.3,-11.4 0.1,0 0.3,0 0.4,0.1 0.8,0.3 0.7,1.3 0.5,3.1 -0.2,1.5 -0.4,3.6 -0.2,6.3 0.3,5.7 1.8,10.3 2.5,10.5 0.2,-0.2 0.6,-1.8 1,-3.3 0.7,-3.1 1.9,-7.8 4.5,-13.4 3.1,-6.5 4.5,-7.3 5.3,-7.3 0.1,0 0.2,0 0.3,0 1.1,0.3 1.2,2.1 1.3,5.9 v 0.5 c 0.2,5.2 0.4,11 0.8,13.3 0.1,-0.3 0.1,-0.6 0.2,-1 0.7,-3.2 2,-9.2 5.8,-15.2 1.1,-1.7 3.8,-5.6 5.4,-5.6 0.2,0 0.3,0 0.4,0.1 1,0.4 0.8,1.8 0.4,4.4 -0.4,2.9 -1,7.3 -0.2,12.6 0.7,4.7 2,7.9 2.6,7.9 0.2,-0.1 0.4,-1 0.6,-1.8 0.4,-1.6 1.1,-4.1 2.6,-7.3 0.5,-1 0.9,-1.8 1.3,-2.4 0.8,-1.4 1.5,-2.5 2,-4.6 0.1,-0.5 0.3,-1.1 0.4,-1.5 0.3,-1.2 0.4,-2 1.1,-2.1 0,0 0,0 0,0 0.7,0 1.3,0.5 2.4,6 0.9,4.7 1.6,8.4 0.6,13.3 -0.7,3 -1.1,5 -2.6,6.8 -2.8,3.5 -7,3.7 -17.1,4.3 -4.1,0.2 -9.2,0.5 -15.7,1.1 -1,0.1 -2,0.2 -3,0.3 -2.1,0.2 -4.3,0.4 -6.2,0.6 L 501,245 c -5.2,0.4 -8.3,0.7 -10.4,0.7 z"
   id="path54"
   style="stroke-width:0.848723" />
					</g>
					<g
   id="g60"
   style="stroke-width:0.848723">
						<path
   class="st1"
   d="m 536.3,207.5 c 0.1,0 0.2,0 0.2,0 1.4,0.6 -1.5,7.2 -0.1,16.6 0.6,3.8 1.9,8.4 3.1,8.4 0,0 0,0 0,0 1.1,0 0.7,-3.6 3.7,-9.4 1.5,-3 2.6,-4 3.4,-7.1 0.5,-1.8 0.6,-3.1 1,-3.2 0,0 0,0 0,0 0.8,0 1.6,4.3 1.8,5.6 0.9,4.6 1.6,8.3 0.6,13.1 -0.7,3 -1.1,4.9 -2.5,6.6 -3.8,4.6 -10.3,3.2 -32.4,5.2 -3,0.3 -6.3,0.6 -9.2,0.8 -8.1,0.6 -12.5,1 -15.2,1 -2.4,0 -3.4,-0.3 -4.4,-1.1 -4.2,-3.2 -3.2,-10.9 -3.1,-11.7 1.1,-7.2 6.9,-13 9,-13 0.1,0 0.3,0 0.4,0.1 1,0.5 -0.4,3.1 0,10 0,0 0.4,6.9 3.9,10.2 0,0 0.1,0 0.1,0.1 0,0 0,0 0,0 0.8,0 1.1,-8 4,-15.2 2.4,-6 6.3,-11 7.8,-11 0.1,0 0.1,0 0.2,0 0.9,0.4 -0.3,3.4 0,9 0.3,5.2 1.7,11 3,11 0,0 0,0 0,0 1.4,0 1.3,-7.1 6,-17 0.7,-1.6 3.4,-7 4.8,-7 0.1,0 0.1,0 0.2,0 0.8,0.2 0.9,2.3 1,6 0.3,8.4 0.6,14.6 1.3,14.7 0,0 0,0 0,0 0.7,0 1,-8.6 6.5,-17.3 1.4,-2.4 3.7,-5.4 4.9,-5.4 m 0,-1 c -1.8,0 -4.2,3.2 -5.9,5.9 -3.2,5 -4.6,9.9 -5.4,13.3 -0.2,-2.8 -0.3,-6.6 -0.5,-10.2 V 215 c -0.2,-4.1 -0.2,-6 -1.7,-6.4 -0.1,0 -0.3,-0.1 -0.4,-0.1 -1.1,0 -2.6,0.9 -5.8,7.6 -2.7,5.7 -3.8,10.4 -4.6,13.5 -0.2,0.9 -0.4,1.8 -0.6,2.4 -0.7,-1.5 -1.7,-5.4 -1.9,-9.6 -0.1,-2.7 0.1,-4.7 0.2,-6.2 0.2,-1.9 0.3,-3.2 -0.8,-3.7 -0.2,-0.1 -0.4,-0.1 -0.6,-0.1 -2.3,0 -6.5,6.2 -8.7,11.7 -1.7,4.3 -2.5,8.9 -3.1,11.9 -0.1,0.6 -0.2,1.3 -0.3,1.8 -2.3,-3.2 -2.7,-8.4 -2.7,-8.4 -0.2,-3.5 0,-5.9 0.2,-7.4 0.2,-1.6 0.3,-2.8 -0.8,-3.4 -0.2,-0.1 -0.5,-0.2 -0.8,-0.2 -2.7,0 -8.9,6.3 -10,13.8 -0.1,0.9 -1.2,9.1 3.5,12.6 1.2,0.9 2.5,1.3 5,1.3 2.1,0 5.3,-0.2 10.4,-0.6 1.5,-0.1 3.1,-0.2 4.9,-0.4 2,-0.1 4.1,-0.4 6.3,-0.6 1,-0.1 2,-0.2 3,-0.3 6.4,-0.6 11.5,-0.9 15.6,-1.1 10.3,-0.6 14.5,-0.8 17.5,-4.5 1.6,-1.9 2,-4 2.7,-7.1 1.1,-4.9 0.3,-8.9 -0.6,-13.5 -1,-5.5 -1.7,-6.4 -2.8,-6.4 0,0 -0.1,0 -0.1,0 -1,0.1 -1.3,1.1 -1.5,2.4 -0.1,0.4 -0.2,0.9 -0.3,1.5 -0.5,2 -1.2,3.1 -2,4.5 -0.4,0.7 -0.9,1.5 -1.4,2.5 -1.6,3.2 -2.3,5.7 -2.7,7.4 -0.1,0.3 -0.2,0.7 -0.3,1 -0.6,-1.1 -1.4,-3.7 -1.9,-7.1 -0.8,-5.2 -0.2,-9.6 0.2,-12.5 0.4,-2.7 0.6,-4.3 -0.7,-4.9 -0.2,0.1 -0.4,0.1 -0.6,0.1 z"
   id="path58"
   style="stroke-width:0.848723" />
					</g>
				</g>
				<g
   id="XMLID_66_"
   class="st5"
   style="stroke-width:0.848723">
					<path
   class="st3"
   d="m 483,242.7 c -0.1,1 -0.2,2.1 -0.1,3.1 v 0 c 0.8,8.3 8.9,14.4 18,13.6 l 35,-3.1 c 9.1,-0.8 15.8,-8.2 15,-16.5 v 0 c -0.1,-1.1 -0.3,-2.1 -0.7,-3.1 -22.4,2 -44.8,4 -67.2,6 z"
   id="path63"
   style="stroke-width:0.848723" />
					<path
   class="st1"
   d="m 499.3,261 c -9.2,0 -17,-6.4 -17.8,-15 -0.1,-1.1 -0.1,-2.3 0.1,-3.5 l 0.2,-1.2 69.6,-6.3 0.4,1.1 c 0.4,1.2 0.7,2.3 0.8,3.5 0.4,4.1 -0.9,8.3 -3.7,11.6 -3.1,3.7 -7.7,6.1 -12.7,6.6 l -35,3.1 c -0.8,0.1 -1.4,0.1 -1.9,0.1 z m -15,-16.9 c 0,0.5 0,1.1 0,1.6 0.7,7.5 8.1,13 16.4,12.2 l 35,-3.1 c 4.2,-0.4 8.1,-2.4 10.7,-5.5 2.3,-2.7 3.3,-6.1 3,-9.4 -0.1,-0.6 -0.2,-1.1 -0.3,-1.7 z"
   id="path65"
   style="stroke-width:0.848723" />
				</g>
				<g
   id="XMLID_10_"
   style="stroke-width:0.848723">
					<path
   class="st3"
   d="m 499.4,268.8 41.8,-3.5 c 2.4,-0.2 4.2,-2.3 4,-4.7 v 0 c -0.2,-2.4 -2.3,-4.2 -4.7,-4 l -41.8,3.5 c -2.4,0.2 -4.2,2.3 -4,4.7 v 0 c 0.1,2.4 2.3,4.2 4.7,4 z"
   id="path68"
   style="stroke-width:0.848723" />
					<path
   class="st1"
   d="m 499,270.3 c -3,0 -5.6,-2.3 -5.9,-5.4 -0.1,-1.6 0.4,-3.1 1.4,-4.3 1,-1.2 2.4,-1.9 4,-2.1 l 41.8,-3.5 c 1.6,-0.1 3.1,0.4 4.3,1.4 1.2,1 1.9,2.4 2.1,4 0.1,1.6 -0.4,3.1 -1.4,4.3 -1,1.2 -2.4,1.9 -4,2.1 l -41.8,3.5 c -0.2,0 -0.3,0 -0.5,0 z m 41.8,-12.2 c -0.1,0 -0.2,0 -0.2,0 l -41.8,3.5 c -0.8,0.1 -1.5,0.4 -2,1 -0.5,0.6 -0.7,1.3 -0.7,2.1 0.1,1.6 1.5,2.8 3.1,2.6 l 41.8,-3.5 c 0.8,-0.1 1.5,-0.4 2,-1 0.5,-0.6 0.7,-1.3 0.7,-2.1 0,-0.8 -0.4,-1.5 -1,-2 -0.5,-0.4 -1.2,-0.6 -1.9,-0.6 z"
   id="path70"
   style="stroke-width:0.848723" />
				</g>
			</g>
			<g
   id="Compass"
   style="stroke-width:0.848723">
				<g
   id="XMLID_6_"
   style="stroke-width:0.848723">
					<g
   id="XMLID_7_"
   style="stroke-width:0.848723">
						<path
   class="st3"
   d="m 448,316 c 10.4,122.3 20.9,244.6 31.3,367 l -80.8,-391.6 46,20.8 -2.8,-46.9 L 738.5,510 C 641.7,445.3 544.8,380.7 448,316 Z"
   id="path74"
   style="stroke-width:0.848723" />
						<path
   class="st1"
   d="M 477.8,683.3 396.4,288.8 c 14.9,6.1 29.7,12.2 44.6,18.2 -0.3,-15 -0.6,-30.1 -0.9,-45.1 l 299.4,247 -1.8,2.4 C 641.8,447.2 545.9,383.1 450,319 c 10.3,121.3 20.5,242.6 30.8,363.8 z M 400.6,293.9 475.7,658 C 466.1,543.3 456.6,428.7 447,314 536.3,373.5 625.6,433 714.9,492.5 L 443.4,268.6 c 0.9,14.8 1.7,29.6 2.6,44.4 -15.1,-6.4 -30.3,-12.7 -45.4,-19.1 z"
   id="path76"
   style="stroke-width:0.848723" />
					</g>
				</g>
				<g
   id="XMLID_21_"
   style="stroke-width:0.848723">
					<g
   id="XMLID_17_"
   style="stroke-width:0.848723">
						<path
   class="st3"
   d="m 419.4,278.4 -3.4,2.4 c -3,2.1 -7.2,1.3 -9.3,-1.7 l -24.5,-35.6 c -2.1,-3 -1.3,-7.2 1.7,-9.3 l 3.4,-2.4 c 3,-2.1 7.2,-1.3 9.3,1.7 l 24.5,35.6 c 2.1,3 1.3,7.2 -1.7,9.3 z"
   id="path80"
   style="stroke-width:0.848723" />
						<path
   class="st1"
   d="m 412.2,283.4 c -2.6,0 -5.1,-1.2 -6.7,-3.5 L 381,244.3 c -2.6,-3.7 -1.6,-8.8 2.1,-11.3 l 3.4,-2.4 c 1.8,-1.2 4,-1.7 6.1,-1.3 2.1,0.4 4,1.6 5.2,3.4 l 24.5,35.6 c 1.2,1.8 1.7,4 1.3,6.1 -0.4,2.1 -1.6,4 -3.4,5.2 l -3.4,2.4 c -1.4,1 -3,1.4 -4.6,1.4 z m -21.1,-51.3 c -1,0 -2,0.3 -2.9,0.9 l -3.4,2.4 c -2.3,1.6 -2.9,4.8 -1.3,7.2 l 24.5,35.6 c 1.6,2.3 4.8,2.9 7.2,1.3 l 3.4,-2.4 c 1.1,-0.8 1.9,-2 2.1,-3.3 0.2,-1.3 0,-2.7 -0.8,-3.9 l -24.5,-35.6 c -0.8,-1.1 -2,-1.9 -3.3,-2.1 -0.4,0 -0.7,-0.1 -1,-0.1 z"
   id="path82"
   style="stroke-width:0.848723" />
					</g>
					<g
   id="XMLID_15_"
   style="stroke-width:0.848723">
						<g
   id="XMLID_32_"
   class="st5"
   style="stroke-width:0.848723">
							<path
   class="st1"
   d="m 427.1,259.1 c -17,0 -30.9,13.8 -30.9,30.9 0,17.1 13.8,30.9 30.9,30.9 17,0 30.9,-13.8 30.9,-30.9 0,-17 -13.9,-30.9 -30.9,-30.9 z m 0,40.7 c -5.4,0 -9.8,-4.4 -9.8,-9.8 0,-5.4 4.4,-9.8 9.8,-9.8 5.4,0 9.8,4.4 9.8,9.8 0,5.4 -4.4,9.8 -9.8,9.8 z"
   id="path85"
   style="stroke-width:0.848723" />
						</g>
						<g
   id="inner_circle"
   class="st5"
   style="stroke-width:0.848723">
							<path
   class="st6"
   d="m 436.9,290 c 0,5.4 -4.4,9.8 -9.8,9.8 -5.4,0 -9.8,-4.4 -9.8,-9.8 0,-5.4 4.4,-9.8 9.8,-9.8 5.4,0 9.8,4.4 9.8,9.8 z"
   id="path88"
   style="stroke-width:0.848723" />
						</g>
					</g>
				</g>
			</g>
			<g
   id="Set_Square__x26__Shock"
   style="stroke-width:0.848723">
				<g
   id="XMLID_9_"
   style="stroke-width:0.848723">
					<g
   id="XMLID_24_"
   style="stroke-width:0.848723">
						<path
   class="st7"
   d="m 599.9,474.1 c -14.5,6.1 -28.9,12.2 -43.4,18.4 0,-26.7 0,-53.3 0,-80 -19.6,-1.9 -39.1,-3.9 -58.7,-5.8 32.9,-60.4 65.8,-120.8 98.7,-181.2 1.1,82.9 2.3,165.8 3.4,248.6 z"
   id="path94"
   style="stroke-width:0.848723" />
						<path
   class="st1"
   d="m 555,494.8 v -80.9 l -59.6,-5.9 102.5,-188.2 3.5,255.4 z m -54.8,-89.3 57.8,5.7 v 79.1 l 40.4,-17.1 -3.3,-241.9 z"
   id="path96"
   style="stroke-width:0.848723" />
					</g>
					<g
   id="XMLID_30_"
   style="stroke-width:0.848723">
						<path
   class="st7"
   d="m 601.5,603.5 c -73,0.3 -146,0.7 -219,1 38,-65.3 76,-130.7 114,-196 11.3,-1.6 22.6,-3.2 33.8,-4.8 l -68,151.7 h 93.8 c 0.1,-19 0.3,-37.9 0.4,-56.9 14.7,-6.4 29.5,-12.9 44.2,-19.3 0.3,41.4 0.5,82.9 0.8,124.3 z"
   id="path99"
   style="stroke-width:0.848723" />
						<path
   class="st1"
   d="m 379.9,606 115.7,-198.9 37.2,-5.3 -68.2,152.1 h 90 L 555,497.5 602.2,476.9 603,605 Z M 497.4,409.9 385.1,603 600,602 l -0.8,-120.5 -41.2,18 -0.4,57.4 H 460 l 67.8,-151.3 z"
   id="path101"
   style="stroke-width:0.848723" />
					</g>
				</g>
				<g
   id="XMLID_26_"
   style="stroke-width:0.848723">
					<path
   class="st8"
   d="M 725.5,435.5 C 638.3,474.2 551.1,513 464,551.7 L 512.9,435.1 272,447.8 582.6,374 534.8,485.4 c 63.6,-16.6 127.1,-33.3 190.7,-49.9 z"
   id="path105"
   style="stroke-width:0.848723" />
					<path
   class="st1"
   d="m 461.6,554.1 49.3,-117.7 -238.8,12.6 -0.4,-2.5 313,-74.4 -47.7,111.5 188.2,-49.3 0.8,2.4 z M 514.8,433.7 466.4,549.2 711,440.5 l -178.3,46.7 47.8,-111.5 -294.7,70 z"
   id="path107"
   style="stroke-width:0.848723" />
				</g>
			</g>
		</g>
		<g
   id="Type_Face"
   style="stroke-width:0.848723">
			<g
   id="g143"
   style="stroke-width:0.848723">
				<g
   id="g115"
   style="stroke-width:0.848723">
					<path
   class="st9"
   d="M 226.9,946.7 V 894 h 22.4 c 5.6,0 9.7,0.5 12.3,1.4 2.5,0.9 4.6,2.6 6.1,5 1.5,2.4 2.3,5.2 2.3,8.3 0,4 -1.2,7.2 -3.5,9.8 -2.3,2.6 -5.8,4.2 -10.4,4.9 2.3,1.3 4.2,2.8 5.7,4.4 1.5,1.6 3.5,4.5 6.1,8.5 l 6.4,10.3 h -12.7 l -7.7,-11.5 c -2.7,-4.1 -4.6,-6.7 -5.6,-7.7 -1,-1.1 -2.1,-1.8 -3.2,-2.2 -1.1,-0.4 -2.9,-0.6 -5.4,-0.6 h -2.2 v 22 h -10.6 z m 10.6,-30.4 h 7.9 c 5.1,0 8.3,-0.2 9.6,-0.6 1.3,-0.4 2.3,-1.2 3,-2.2 0.7,-1 1.1,-2.4 1.1,-4 0,-1.8 -0.5,-3.2 -1.4,-4.3 -0.9,-1.1 -2.3,-1.8 -4,-2.1 -0.9,-0.1 -3.4,-0.2 -7.8,-0.2 h -8.3 v 13.4 z"
   id="path113"
   style="stroke-width:0.848723" />
				</g>
				<g
   id="g119"
   style="stroke-width:0.848723">
					<path
   class="st9"
   d="m 299.7,920.5 c 0,-5.3 0.8,-9.7 2.4,-13.2 1.2,-2.6 2.8,-5 4.8,-7.1 2,-2.1 4.2,-3.6 6.7,-4.6 3.2,-1.4 6.9,-2 11.1,-2 7.6,0 13.7,2.4 18.2,7.1 4.6,4.7 6.8,11.3 6.8,19.7 0,8.3 -2.3,14.8 -6.8,19.5 -4.5,4.7 -10.6,7 -18.1,7 -7.7,0 -13.8,-2.3 -18.3,-7 -4.5,-4.7 -6.8,-11.1 -6.8,-19.4 z m 10.7,-0.3 c 0,5.8 1.3,10.3 4,13.3 2.7,3 6.1,4.5 10.3,4.5 4.2,0 7.6,-1.5 10.2,-4.5 2.7,-3 4,-7.5 4,-13.4 0,-5.9 -1.3,-10.3 -3.9,-13.2 -2.6,-2.9 -6,-4.4 -10.3,-4.4 -4.3,0 -7.7,1.5 -10.4,4.4 -2.6,2.9 -3.9,7.4 -3.9,13.3 z"
   id="path117"
   style="stroke-width:0.848723" />
				</g>
				<g
   id="g123"
   style="stroke-width:0.848723">
					<path
   class="st9"
   d="m 378.3,894.5 h 10.4 v 27.9 c 0,4.4 0.1,7.3 0.4,8.6 0.4,2.1 1.5,3.8 3.2,5.1 1.7,1.3 4,1.9 6.9,1.9 3,0 5.2,-0.6 6.7,-1.8 1.5,-1.2 2.4,-2.7 2.7,-4.4 0.3,-1.8 0.5,-4.7 0.5,-8.8 v -28.5 h 10.4 v 27.1 c 0,6.2 -0.3,10.6 -0.8,13.1 -0.5,2.5 -1.6,4.7 -3.1,6.5 -1.5,1.8 -3.5,3.2 -6.1,4.2 -2.6,1 -5.8,1.6 -9.9,1.6 -4.9,0 -8.7,-0.6 -11.2,-1.7 -2.5,-1.1 -4.6,-2.6 -6,-4.4 -1.4,-1.8 -2.4,-3.7 -2.9,-5.7 -0.7,-3 -1,-7.3 -1,-13.1 v -27.6 z"
   id="path121"
   style="stroke-width:0.848723" />
				</g>
				<path
   class="st9"
   d="m 494.7,936.7 c -2.6,-4.1 -4.6,-7 -6.1,-8.6 -1.5,-1.6 -3.4,-3.1 -5.7,-4.4 4.6,-0.7 8.1,-2.3 10.5,-4.9 2.3,-2.6 3.5,-5.9 3.5,-9.8 0,-3.1 -0.8,-5.9 -2.3,-8.3 -1.5,-2.4 -3.6,-4.1 -6.2,-5.1 -2.6,-1 -6.7,-1.4 -12.3,-1.4 H 453.6 V 947 h 10.7 v -22.1 h 2.2 c 2.5,0 4.2,0.2 5.4,0.6 1.1,0.4 2.2,1.1 3.2,2.2 1,1.1 2.9,3.7 5.6,7.8 l 7.7,11.5 h 12.8 z m -22.5,-20.2 h -7.9 V 903 h 8.3 c 4.3,0 6.9,0.1 7.8,0.2 1.7,0.3 3.1,1 4,2.1 1,1.1 1.4,2.5 1.4,4.3 0,1.6 -0.4,2.9 -1.1,4 -0.7,1.1 -1.7,1.8 -3,2.2 -1.2,0.4 -4.4,0.7 -9.5,0.7 z"
   id="path125"
   style="stroke-width:0.848723" />
				<g
   id="g129"
   style="stroke-width:0.848723">
					<path
   class="st9"
   d="m 526.3,946.4 v -52.1 h 10.6 v 23.1 l 21.4,-23.1 h 14.2 l -19.7,20.3 20.8,31.8 h -13.7 l -14.4,-24.4 -8.6,8.7 v 15.7 z"
   id="path127"
   style="stroke-width:0.848723" />
				</g>
				<g
   id="g133"
   style="stroke-width:0.848723">
					<path
   class="st9"
   d="m 601,946 v -51.5 h 38.2 v 8.7 h -27.8 v 11.4 h 25.9 v 8.7 h -25.9 v 14 h 28.8 v 8.7 z"
   id="path131"
   style="stroke-width:0.848723" />
				</g>
				<g
   id="g137"
   style="stroke-width:0.848723">
					<path
   class="st9"
   d="m 670.3,946 v -51.4 h 10.5 v 42.7 h 26 v 8.7 z"
   id="path135"
   style="stroke-width:0.848723" />
				</g>
				<g
   id="g141"
   style="stroke-width:0.848723">
					<path
   class="st9"
   d="m 782.7,946 h -11.3 l -4.5,-11.7 H 746.3 L 742,946 h -11 l 20.1,-51.5 h 11 z m -19.2,-20.4 -7.1,-19.1 -7,19.1 z"
   id="path139"
   style="stroke-width:0.848723" />
				</g>
			</g>
			<g
   id="g185"
   style="stroke-width:0.848723">
				<g
   id="g147"
   style="stroke-width:0.848723">
					<path
   class="st9"
   d="m 829.8,695.1 -27.6,-22.7 -8.1,9.8 -5.6,-4.6 21.7,-26.4 5.6,4.6 -8.1,9.8 27.6,22.7 z"
   id="path145"
   style="stroke-width:0.848723" />
				</g>
				<g
   id="g151"
   style="stroke-width:0.848723">
					<path
   class="st9"
   d="m 849.6,673.5 -34.1,-26.1 19.4,-25.3 5.8,4.4 -14.1,18.4 7.6,5.8 13.1,-17.1 5.7,4.4 -13.1,17.1 9.3,7.1 14.6,-19 5.7,4.4 z"
   id="path149"
   style="stroke-width:0.848723" />
				</g>
				<g
   id="g155"
   style="stroke-width:0.848723">
					<path
   class="st9"
   d="m 873.7,608.7 6.9,-5.5 c 3.2,3.7 4.9,7.4 5.2,11.1 0.2,3.8 -0.9,7.6 -3.5,11.4 -3.1,4.8 -7.4,7.6 -12.6,8.5 -5.3,0.9 -10.7,-0.5 -16.4,-4.2 -6,-3.9 -9.6,-8.6 -10.8,-13.8 -1.3,-5.3 -0.2,-10.4 3.1,-15.4 2.9,-4.4 6.6,-7.1 11,-8.1 2.6,-0.6 5.6,-0.4 9,0.7 l -3,8.3 c -2.1,-0.8 -4.2,-0.9 -6.2,-0.3 -2,0.6 -3.6,1.9 -4.9,3.8 -1.8,2.7 -2.2,5.4 -1.4,8.4 0.8,2.9 3.3,5.8 7.6,8.6 4.5,3 8.3,4.3 11.3,4 3,-0.4 5.4,-1.8 7.1,-4.4 1.3,-1.9 1.8,-4 1.5,-6.2 -0.4,-2.3 -1.7,-4.6 -3.9,-6.9 z"
   id="path153"
   style="stroke-width:0.848723" />
				</g>
				<g
   id="g159"
   style="stroke-width:0.848723">
					<path
   class="st9"
   d="m 895.5,599.8 -39.2,-17.6 3.5,-7.9 15.4,6.9 6.9,-15.5 -15.4,-6.9 3.5,-7.9 39.2,17.6 -3.5,7.9 -17.1,-7.7 -6.9,15.5 17.1,7.7 z"
   id="path157"
   style="stroke-width:0.848723" />
				</g>
				<g
   id="g163"
   style="stroke-width:0.848723">
					<path
   class="st9"
   d="m 915.5,556.6 -40.3,-14.9 2.9,-7.9 33,-6.6 -26.9,-9.9 2.8,-7.6 40.3,14.9 -3,8.2 -32.3,6.6 26.3,9.7 z"
   id="path161"
   style="stroke-width:0.848723" />
				</g>
				<g
   id="g167"
   style="stroke-width:0.848723">
					<path
   class="st9"
   d="m 910.1,509 c -4.3,-0.9 -7.7,-2.3 -10.4,-4.2 -1.9,-1.4 -3.6,-3.1 -5,-5.1 -1.4,-2 -2.2,-4.1 -2.7,-6.2 -0.6,-2.9 -0.5,-6 0.2,-9.4 1.3,-6.2 4.2,-10.8 8.9,-13.7 4.6,-2.9 10.3,-3.7 17.2,-2.3 6.8,1.4 11.7,4.4 14.8,8.8 3.1,4.5 4,9.8 2.7,16 -1.3,6.3 -4.2,10.8 -8.8,13.7 -4.6,3 -10.2,3.8 -16.9,2.4 z m 1.5,-8.8 c 4.8,1 8.6,0.6 11.5,-1.1 2.9,-1.7 4.7,-4.2 5.4,-7.6 0.7,-3.4 0.1,-6.4 -1.9,-9.1 -2,-2.7 -5.4,-4.5 -10.3,-5.5 -4.8,-1 -8.6,-0.7 -11.4,0.9 -2.8,1.6 -4.6,4.2 -5.3,7.7 -0.7,3.5 -0.1,6.6 1.8,9.2 2,2.7 5.4,4.5 10.2,5.5 z"
   id="path165"
   style="stroke-width:0.848723" />
				</g>
				<g
   id="g171"
   style="stroke-width:0.848723">
					<path
   class="st9"
   d="m 940.8,460.5 -41.4,-5.5 1.1,-8.4 34.4,4.5 2.8,-21 7,0.9 z"
   id="path169"
   style="stroke-width:0.848723" />
				</g>
				<g
   id="g175"
   style="stroke-width:0.848723">
					<path
   class="st9"
   d="m 924.8,420.9 c -4.4,0 -8.1,-0.6 -11,-1.9 -2.2,-1 -4.2,-2.3 -5.9,-4 -1.8,-1.7 -3.1,-3.5 -3.9,-5.5 -1.2,-2.7 -1.7,-5.7 -1.8,-9.2 0,-6.3 1.9,-11.4 5.8,-15.2 3.9,-3.8 9.3,-5.8 16.3,-5.8 6.9,-0.1 12.4,1.8 16.3,5.5 3.9,3.7 5.9,8.8 6,15.1 0,6.4 -1.9,11.5 -5.7,15.3 -3.9,3.7 -9.3,5.6 -16.1,5.7 z m -0.4,-9 c 4.9,0 8.5,-1.2 11,-3.4 2.5,-2.3 3.7,-5.1 3.7,-8.6 0,-3.5 -1.3,-6.3 -3.8,-8.5 -2.5,-2.2 -6.3,-3.3 -11.2,-3.2 -4.9,0 -8.6,1.1 -11,3.3 -2.4,2.2 -3.6,5.1 -3.6,8.6 0,3.6 1.3,6.4 3.7,8.6 2.4,2.2 6.3,3.3 11.2,3.2 z"
   id="path173"
   style="stroke-width:0.848723" />
				</g>
				<g
   id="g179"
   style="stroke-width:0.848723">
					<path
   class="st9"
   d="m 927.6,351.5 -7.2,0.5 -1.2,-18.7 17.1,-1.1 c 1.9,1.7 3.6,4.2 5.1,7.6 1.5,3.4 2.4,6.8 2.7,10.3 0.3,4.5 -0.4,8.5 -2.1,11.9 -1.7,3.5 -4.2,6.1 -7.6,8 -3.4,1.9 -7.1,3 -11.3,3.2 -4.5,0.3 -8.5,-0.4 -12.1,-2.1 -3.6,-1.7 -6.4,-4.2 -8.5,-7.7 -1.6,-2.7 -2.5,-6 -2.8,-10.1 -0.3,-5.3 0.5,-9.5 2.6,-12.7 2,-3.1 5,-5.3 8.9,-6.4 l 2.1,8.5 c -2.1,0.7 -3.7,2 -4.8,3.7 -1.1,1.7 -1.6,3.9 -1.4,6.4 0.2,3.8 1.6,6.7 4.2,8.8 2.5,2.1 6.2,3 10.9,2.7 5.1,-0.3 8.8,-1.7 11.2,-4.1 2.4,-2.4 3.5,-5.5 3.3,-9.1 -0.1,-1.8 -0.6,-3.6 -1.4,-5.4 -0.8,-1.8 -1.8,-3.3 -2.9,-4.5 l -5.4,0.3 z"
   id="path177"
   style="stroke-width:0.848723" />
				</g>
				<g
   id="g183"
   style="stroke-width:0.848723">
					<path
   class="st9"
   d="m 938.5,312.8 -17.8,3 -21.9,19.6 -1.7,-10 15.1,-12.8 -18.4,-6.9 -1.7,-9.9 27.2,11.4 17.8,-3 z"
   id="path181"
   style="stroke-width:0.848723" />
				</g>
			</g>
			<g
   id="g231"
   style="stroke-width:0.848723">
				<g
   id="g189"
   style="stroke-width:0.848723">
					<path
   class="st9"
   d="m 232,780.9 25.4,-34.6 7,5.1 -25.5,34.6 z"
   id="path187"
   style="stroke-width:0.848723" />
				</g>
				<g
   id="g193"
   style="stroke-width:0.848723">
					<path
   class="st9"
   d="m 258.4,799.2 22.2,-36.8 7.2,4.4 0.2,33.6 14.8,-24.5 6.9,4.2 -22.2,36.8 -7.4,-4.5 -0.3,-32.9 -14.5,24 z"
   id="path191"
   style="stroke-width:0.848723" />
				</g>
				<g
   id="g197"
   style="stroke-width:0.848723">
					<path
   class="st9"
   d="m 312.9,812.7 8.1,2.6 c -0.7,2.8 -0.5,5.1 0.4,7 0.9,1.8 2.6,3.3 5,4.3 2.6,1.1 4.7,1.4 6.5,0.9 1.8,-0.5 3,-1.5 3.6,-3 0.4,-0.9 0.5,-1.8 0.2,-2.7 -0.3,-0.9 -1,-1.9 -2.1,-2.9 -0.8,-0.7 -2.7,-2.2 -5.6,-4.5 -3.8,-2.9 -6.2,-5.5 -7.3,-7.8 -1.5,-3.2 -1.6,-6.4 -0.2,-9.5 0.9,-2 2.2,-3.6 4.1,-4.9 1.9,-1.3 4.1,-1.9 6.6,-1.9 2.5,0 5.3,0.7 8.4,2 4.9,2.1 8.2,4.8 9.8,8.1 1.6,3.2 1.6,6.7 0.2,10.4 l -8.1,-3.1 c 0.5,-2.2 0.4,-3.9 -0.3,-5.3 -0.7,-1.4 -2.2,-2.5 -4.5,-3.5 -2.3,-1 -4.3,-1.3 -6,-0.9 -1.1,0.2 -1.9,0.9 -2.3,1.9 -0.4,0.9 -0.4,1.9 0.2,2.9 0.6,1.3 2.7,3.2 6.2,5.8 3.5,2.6 5.9,4.8 7.4,6.5 1.5,1.7 2.3,3.7 2.6,5.9 0.3,2.1 -0.1,4.5 -1.1,7 -1,2.3 -2.5,4.1 -4.6,5.5 -2.1,1.4 -4.5,2.1 -7.2,2.1 -2.7,0 -5.8,-0.8 -9.2,-2.3 -5,-2.2 -8.3,-5 -10,-8.4 -2.1,-3.5 -2.2,-7.6 -0.8,-12.2 z"
   id="path195"
   style="stroke-width:0.848723" />
				</g>
				<g
   id="g201"
   style="stroke-width:0.848723">
					<path
   class="st9"
   d="m 375.6,849.9 9.5,-34.4 -13,-3.6 1.9,-7 34.8,9.6 -1.9,7 -13,-3.6 -9.5,34.4 z"
   id="path199"
   style="stroke-width:0.848723" />
				</g>
				<g
   id="g205"
   style="stroke-width:0.848723">
					<path
   class="st9"
   d="m 421.9,861 3.6,-42.8 8.1,0.7 -3.6,42.8 z"
   id="path203"
   style="stroke-width:0.848723" />
				</g>
				<g
   id="g209"
   style="stroke-width:0.848723">
					<path
   class="st9"
   d="m 465.1,865.8 1.2,-35.7 -12.7,-0.4 0.3,-7.3 34.1,1.2 -0.3,7.3 -12.7,-0.4 -1.2,35.7 z"
   id="path207"
   style="stroke-width:0.848723" />
				</g>
				<g
   id="g213"
   style="stroke-width:0.848723">
					<path
   class="st9"
   d="m 505.3,824.8 8.9,-0.3 0.7,23.9 c 0.1,3.8 0.3,6.2 0.5,7.4 0.4,1.8 1.4,3.2 2.9,4.3 1.5,1.1 3.4,1.5 5.9,1.5 2.5,-0.1 4.4,-0.6 5.7,-1.7 1.3,-1.1 2,-2.4 2.2,-3.9 0.2,-1.5 0.3,-4 0.2,-7.5 l -0.7,-24.4 8.9,-0.3 0.7,23.2 c 0.2,5.3 0,9 -0.4,11.2 -0.4,2.2 -1.3,4.1 -2.5,5.6 -1.2,1.5 -2.9,2.8 -5.1,3.7 -2.1,1 -5,1.5 -8.4,1.6 -4.2,0.1 -7.4,-0.3 -9.6,-1.2 -2.2,-0.9 -4,-2.1 -5.3,-3.6 -1.3,-1.5 -2.2,-3.1 -2.6,-4.8 -0.7,-2.5 -1.1,-6.2 -1.2,-11.2 z"
   id="path211"
   style="stroke-width:0.848723" />
				</g>
				<g
   id="g217"
   style="stroke-width:0.848723">
					<path
   class="st9"
   d="m 578.9,861.7 -4.5,-35.6 -11.8,1.5 -0.9,-7.2 31.5,-4 0.9,7.2 -11.7,1.5 4.5,35.6 z"
   id="path215"
   style="stroke-width:0.848723" />
				</g>
				<g
   id="g221"
   style="stroke-width:0.848723">
					<path
   class="st9"
   d="m 622.1,853.3 -13,-40.9 30.4,-9.6 2.2,6.9 -22.1,7 2.9,9.1 20.6,-6.5 2.2,6.9 -20.6,6.5 3.5,11.1 22.9,-7.2 2.2,6.9 z"
   id="path219"
   style="stroke-width:0.848723" />
				</g>
				<g
   id="g225"
   style="stroke-width:0.848723">
					<path
   class="st9"
   d="m 693.6,803.8 c -2,-3.9 -3,-7.5 -3.2,-10.7 -0.1,-2.4 0.2,-4.7 0.9,-7.1 0.7,-2.4 1.8,-4.3 3.2,-6 1.9,-2.2 4.4,-4.1 7.5,-5.7 5.7,-2.8 11.1,-3.4 16.2,-1.6 5.1,1.8 9.3,5.8 12.5,12.1 3.1,6.2 3.9,11.9 2.3,17.1 -1.6,5.2 -5.2,9.2 -10.9,12 -5.7,2.9 -11.1,3.4 -16.2,1.6 -5.1,-1.6 -9.2,-5.6 -12.3,-11.7 z m 7.9,-4.2 c 2.2,4.3 4.8,7.1 8,8.4 3.1,1.2 6.2,1.1 9.3,-0.5 3.1,-1.6 5.1,-3.9 5.9,-7.2 0.8,-3.3 0.2,-7.1 -2.1,-11.5 -2.2,-4.4 -4.8,-7.2 -7.8,-8.4 -3,-1.2 -6.1,-1 -9.3,0.6 -3.2,1.6 -5.2,4 -6.1,7.2 -0.8,3.1 -0.1,6.9 2.1,11.4 z"
   id="path223"
   style="stroke-width:0.848723" />
				</g>
				<g
   id="g229"
   style="stroke-width:0.848723">
					<path
   class="st9"
   d="m 758.5,792.8 -26.7,-33.6 22.7,-18 4.5,5.7 -16,12.7 6.3,8 13.8,-11 4.5,5.7 -13.8,11 11.4,14.3 z"
   id="path227"
   style="stroke-width:0.848723" />
				</g>
			</g>
			<g
   id="g265"
   style="stroke-width:0.848723">
				<g
   id="g235"
   style="stroke-width:0.848723">
					<path
   class="st9"
   d="m 73,316.8 42.6,5.2 -1,8.4 -30.6,14 28.5,3.5 -1,8 -42.6,-5.2 1.1,-8.6 29.9,-13.8 -27.9,-3.5 z"
   id="path233"
   style="stroke-width:0.848723" />
				</g>
				<g
   id="g239"
   style="stroke-width:0.848723">
					<path
   class="st9"
   d="m 64.8,411.8 0.3,-9.4 9.9,-3.4 0.6,-17.2 -9.6,-3.9 0.3,-9.2 42.4,18.2 -0.3,9.2 z M 82.3,396.4 98.4,391 82.7,384.7 Z"
   id="path237"
   style="stroke-width:0.848723" />
				</g>
				<g
   id="g243"
   style="stroke-width:0.848723">
					<path
   class="st9"
   d="m 63.2,440.3 35.5,-3.2 -1.1,-12.7 7.2,-0.7 3.1,34 -7.2,0.7 L 99.6,445.7 64,449 Z"
   id="path241"
   style="stroke-width:0.848723" />
				</g>
				<g
   id="g247"
   style="stroke-width:0.848723">
					<path
   class="st9"
   d="m 68.9,485.8 41.9,-9.5 1.9,8.5 -41.9,9.5 z"
   id="path245"
   style="stroke-width:0.848723" />
				</g>
				<g
   id="g251"
   style="stroke-width:0.848723">
					<path
   class="st9"
   d="m 94.1,506.8 c 4.2,-1.4 7.9,-1.9 11.1,-1.5 2.4,0.3 4.7,0.9 6.8,2 2.1,1.1 4,2.4 5.4,4.1 1.9,2.2 3.4,5 4.5,8.3 2,6 1.7,11.4 -0.9,16.3 -2.6,4.8 -7.2,8.3 -13.8,10.5 -6.6,2.1 -12.3,2 -17.2,-0.3 -4.9,-2.4 -8.3,-6.6 -10.3,-12.6 -2,-6.1 -1.7,-11.5 0.8,-16.3 2.6,-4.9 7.1,-8.4 13.6,-10.5 z m 3.1,8.4 c -4.6,1.5 -7.8,3.7 -9.5,6.6 -1.7,2.9 -2,6 -0.9,9.3 1.1,3.3 3.1,5.6 6.2,6.9 3.1,1.3 6.9,1.2 11.7,-0.3 4.7,-1.5 7.8,-3.7 9.5,-6.5 1.6,-2.8 1.9,-5.9 0.8,-9.3 -1.1,-3.4 -3.2,-5.8 -6.2,-7.1 -3.1,-1.2 -6.9,-1.1 -11.6,0.4 z"
   id="path249"
   style="stroke-width:0.848723" />
				</g>
				<g
   id="g255"
   style="stroke-width:0.848723">
					<path
   class="st9"
   d="m 98.8,572.6 39.5,-16.9 3.3,7.8 -19.5,27.4 26.4,-11.3 3.2,7.4 -39.5,16.9 -3.4,-8 18.9,-26.9 -25.7,11 z"
   id="path253"
   style="stroke-width:0.848723" />
				</g>
				<g
   id="g259"
   style="stroke-width:0.848723">
					<path
   class="st9"
   d="m 148.5,659 -4.8,-7.7 6.1,-8.1 -8.8,-14.1 -9.8,2.1 -4.7,-7.5 43.8,-8.3 4.7,7.5 z m 5.8,-21.8 10,-13 -16,3.4 z"
   id="path257"
   style="stroke-width:0.848723" />
				</g>
				<g
   id="g263"
   style="stroke-width:0.848723">
					<path
   class="st9"
   d="m 162.8,673 29.9,-23.4 4.8,6.1 -24.8,19.4 11.8,15.1 -5.1,4 z"
   id="path261"
   style="stroke-width:0.848723" />
				</g>
			</g>
			
		</g>
	</g>
</switch>
</svg>
